<svg width="24" height="25" viewBox="0 0 24 25" fill="none" xmlns="http://www.w3.org/2000/svg">
<path d="M23.6856 20.3774C23.5676 18.376 22.2246 17.3637 21.1938 16.9274C19.3347 16.1399 18.0444 14.9121 16.8271 13.3028L16.5635 12.9515L16.3856 12.7169L18.2526 9.87321C19.1034 8.57625 19.7782 8.8135 21.0778 7.96599C21.6176 7.61407 22.0967 7.0104 22.0967 5.97507C22.0993 5.6494 22.0378 5.3264 21.9156 5.02452C21.7934 4.72263 21.613 4.44777 21.3846 4.21562C20.9233 3.74677 20.2946 3.48039 19.6369 3.47505C19.3112 3.47241 18.9882 3.53395 18.6863 3.65613C18.3844 3.77832 18.1096 3.95878 17.8774 4.18719C17.4086 4.6485 17.1422 5.27715 17.1369 5.93487C17.1369 5.94607 17.1369 5.95728 17.1369 5.96914C17.1336 7.6312 17.2542 7.96269 16.5635 9.4745L15.4913 11.5326L12.9007 8.1057C11.4541 6.36785 10.3305 8.05693 10.3305 8.05693L9.46251 9.37169L9.29249 9.63069C9.2424 9.53776 9.19297 9.44418 9.14552 9.34994C8.36533 7.79733 7.92712 6.09547 7.86042 4.35914C7.86042 4.35123 7.86042 4.34398 7.86042 4.33673C7.80947 3.37819 7.39671 2.47468 6.70547 1.80865C6.01424 1.14261 5.09604 0.763672 4.13626 0.748334C2.03002 0.722632 0.190016 2.42621 0.314572 4.52324C0.433196 6.52404 1.77629 7.5363 2.80701 7.97324C4.66546 8.76011 5.95649 9.98788 7.17372 11.5979L7.43733 11.9491L7.6146 12.1838L5.75022 15.0281C4.89876 16.3251 4.22457 16.0878 2.92497 16.9347C2.38523 17.2866 1.90612 17.8903 1.90612 18.9262C1.90088 19.584 2.15712 20.2168 2.61849 20.6856C3.07986 21.1544 3.70855 21.4207 4.36626 21.4259C5.02398 21.4312 5.65684 21.1749 6.12562 20.7136C6.5944 20.2522 6.86071 19.6235 6.86595 18.9658V18.9322C6.8699 17.2701 6.74864 16.938 7.43996 15.4262L8.5122 13.3687L11.1022 16.7956C12.5487 18.5328 13.6724 16.8437 13.6724 16.8437L14.5357 15.529L14.7051 15.2706C14.7558 15.3636 14.8046 15.4571 14.8527 15.5514C15.6325 17.1041 16.0704 18.8059 16.1371 20.5422C16.1371 20.5494 16.1371 20.5567 16.1371 20.5646C16.1881 21.5228 16.6007 22.4261 17.2916 23.092C17.9826 23.7579 18.9005 24.1368 19.86 24.1523C21.9702 24.1774 23.8102 22.4738 23.6856 20.3774ZM11.8027 13.9242L9.93042 10.7359C11.1503 9.12126 12.1955 10.9758 12.1955 10.9758L14.0658 14.1648C12.8479 15.7794 11.8027 13.9242 11.8027 13.9242Z" fill="#DADADA"/>
</svg>
