<svg width="118" height="22" viewBox="0 0 118 22" fill="none" xmlns="http://www.w3.org/2000/svg">
<path d="M102.507 0.00390625H99.4521V16.5219H102.507V0.00390625Z" fill="#DADADA"/>
<path d="M114.253 16.471L118 16.46L110.502 10.1384L116.855 4.62549L113.049 4.5856L107.95 9.02562V0.00390625H104.896V16.5219H107.95V12.3515L108.7 11.7325L114.253 16.471Z" fill="#DADADA"/>
<path d="M83.4373 4.69335H80.2311L77.4898 13.2089L74.9122 4.67822H71.4034L68.8587 13.1016L66.1257 4.69748H62.9648L66.7378 16.5472L70.4612 16.5458L73.1571 7.54058L75.8613 16.5485L79.6287 16.5417L83.4373 4.69335Z" fill="#DADADA"/>
<path d="M27.0479 4.70801H22.1168C21.5919 4.70711 21.0719 4.80984 20.5867 5.01033C20.1015 5.21081 19.6606 5.5051 19.2894 5.87632C18.9182 6.24754 18.6239 6.68839 18.4234 7.17358C18.2229 7.65878 18.1202 8.17877 18.1211 8.70376V12.5262C18.1202 13.0512 18.2229 13.5712 18.4234 14.0564C18.6239 14.5416 18.9182 14.9824 19.2894 15.3536C19.6606 15.7248 20.1015 16.0191 20.5867 16.2196C21.0719 16.4201 21.5919 16.5228 22.1168 16.5219H27.052C28.1099 16.5219 29.1245 16.1017 29.8726 15.3536C30.6206 14.6056 31.0409 13.591 31.0409 12.5331V8.70376C31.0418 8.17901 30.9392 7.65923 30.7388 7.17422C30.5385 6.6892 30.2445 6.24848 29.8736 5.87729C29.5026 5.50611 29.0621 5.21176 28.5772 5.01112C28.0924 4.81047 27.5727 4.70747 27.0479 4.70801ZM27.9873 9.08751V12.1218C27.9873 12.6296 27.7856 13.1166 27.4266 13.4757C27.0675 13.8347 26.5805 14.0365 26.0727 14.0365H23.0865C22.5787 14.0365 22.0917 13.8347 21.7327 13.4757C21.3736 13.1166 21.1719 12.6296 21.1719 12.1218V9.08751C21.1719 8.57971 21.3736 8.09271 21.7327 7.73365C22.0917 7.37458 22.5787 7.17286 23.0865 7.17286H26.0727C26.5805 7.17286 27.0675 7.37458 27.4266 7.73365C27.7856 8.09271 27.9873 8.57971 27.9873 9.08751Z" fill="#DADADA"/>
<path d="M42.3702 4.70857L33.4297 4.66455V21.1826H36.4846V16.4083C36.7957 16.4842 37.1148 16.5225 37.4351 16.5225H42.3702C43.4282 16.5225 44.4427 16.1022 45.1908 15.3542C45.9389 14.6061 46.3591 13.5915 46.3591 12.5336V8.70431C46.36 8.1799 46.2575 7.66047 46.0575 7.17572C45.8574 6.69098 45.5637 6.25044 45.1932 5.87931C44.8227 5.50818 44.3827 5.21375 43.8983 5.01286C43.4139 4.81197 42.8946 4.70857 42.3702 4.70857ZM43.3111 12.1224C43.3111 12.6302 43.1093 13.1172 42.7503 13.4762C42.3912 13.8353 41.9042 14.037 41.3964 14.037H38.4103C37.9025 14.037 37.4155 13.8353 37.0564 13.4762C36.6973 13.1172 36.4956 12.6302 36.4956 12.1224V9.08806C36.4956 8.58027 36.6973 8.09327 37.0564 7.7342C37.4155 7.37513 37.9025 7.17341 38.4103 7.17341H41.3964C41.9042 7.17341 42.3912 7.37513 42.7503 7.7342C43.1093 8.09327 43.3111 8.58027 43.3111 9.08806V12.1224Z" fill="#DADADA"/>
<path d="M15.7134 6.84962V4.2266C15.7134 3.67215 15.6041 3.12313 15.3917 2.61095C15.1794 2.09877 14.8681 1.63348 14.4758 1.24168C14.0835 0.849874 13.6178 0.53925 13.1054 0.327571C12.5929 0.115892 12.0438 0.00730963 11.4893 0.00803276L3.05492 0.0190365V0.00390625H0V16.5219H3.05492V10.2883H10.631C10.8954 10.2881 11.1572 10.34 11.4015 10.4411C11.6458 10.5421 11.8678 10.6903 12.0548 10.8772C12.2418 11.0641 12.3902 11.286 12.4914 11.5302C12.5926 11.7745 12.6447 12.0362 12.6447 12.3006V16.5219H15.6996V11.1906C15.6996 10.1796 14.7368 9.05725 13.5415 9.05725C14.1214 9.04964 14.6748 8.81348 15.0815 8.4001C15.4881 7.98671 15.7152 7.42952 15.7134 6.84962ZM12.6585 6.12475C12.6585 6.56251 12.4846 6.98233 12.175 7.29188C11.8655 7.60142 11.4456 7.77531 11.0079 7.77531H3.05492V2.52789H11.0065C11.4443 2.52789 11.8641 2.70179 12.1736 3.01133C12.4832 3.32087 12.6571 3.7407 12.6571 4.17846L12.6585 6.12475Z" fill="#DADADA"/>
<path d="M61.6913 8.7042C61.6913 8.1798 61.5879 7.66054 61.387 7.17614C61.1861 6.69174 60.8917 6.25171 60.5205 5.88121C60.1494 5.51072 59.7089 5.21705 59.2241 5.017C58.7394 4.81694 58.2199 4.71443 57.6955 4.71534H52.7604C52.236 4.71534 51.7167 4.81874 51.2323 5.01963C50.7479 5.22052 50.3079 5.51495 49.9374 5.88608C49.5669 6.25721 49.2732 6.69775 49.0732 7.1825C48.8731 7.66724 48.7706 8.18668 48.7715 8.71108V12.5335C48.7706 13.0579 48.8731 13.5774 49.0732 14.0621C49.2732 14.5468 49.5669 14.9874 49.9374 15.3585C50.3079 15.7296 50.7479 16.0241 51.2323 16.225C51.7167 16.4259 52.236 16.5293 52.7604 16.5293H57.6955C59.7065 16.5293 61.3694 15.3285 61.65 13.3959H58.3627C58.0284 13.9544 57.4191 14.0438 56.7217 14.0438H53.7356C53.484 14.0431 53.2351 13.9928 53.003 13.8958C52.7708 13.7988 52.5601 13.6571 52.3828 13.4786C52.2055 13.3002 52.0651 13.0885 51.9697 12.8558C51.8742 12.6231 51.8255 12.3738 51.8264 12.1222V11.5115H61.6885L61.6913 8.7042ZM53.7356 7.1733H56.7217C58.1082 7.1733 58.5882 8.3342 58.6322 9.35205H51.8264C51.8691 8.3342 52.3766 7.1733 53.7356 7.1733Z" fill="#DADADA"/>
<path d="M97.0903 8.7042C97.0903 7.64628 96.6701 6.6317 95.922 5.88364C95.174 5.13559 94.1594 4.71533 93.1015 4.71533H88.1608C86.1498 4.71533 84.6698 6.01653 84.3906 7.94906H87.6766C88.0122 7.39888 88.4373 7.20081 89.1346 7.20081H92.1276C92.6354 7.20081 93.1224 7.40253 93.4815 7.7616C93.8406 8.12066 94.0423 8.60766 94.0423 9.11546V9.72617H86.9806C86.2353 9.72617 85.5204 10.0217 84.9926 10.5479C84.4648 11.0742 84.1672 11.7882 84.165 12.5335C84.1641 13.0579 84.2666 13.5773 84.4667 14.0621C84.6668 14.5468 84.9604 14.9874 85.3309 15.3585C85.7014 15.7296 86.1414 16.0241 86.6258 16.225C87.1102 16.4258 87.6295 16.5292 88.1539 16.5292L97.0766 16.477L97.0903 8.7042ZM92.1276 14.0575H89.1346H88.1512C86.7922 14.0575 86.5983 11.777 88.2419 11.777H93.9763V12.3767C93.9763 13.3051 93.019 14.0575 92.1276 14.0575Z" fill="#DADADA"/>
</svg>
